# xmcd
#
# Track frame offsets:
#	150
#	18852
#	38157
#	61137
#	81565
#	100977
#	117750
#	135000
#	150970
#	169660
#	188550
#
# Disc length: 2750 seconds
#
# Revision: 2
# Processed by: cddbd v1.4PL0 Copyright (c) Steve Scherf et al.
# Submitted via: audiograbber 1.81.03
#
DISCID=760abc0b
DTITLE=Jimmy Thackery and The Drivers - Drive To Survive
DYEAR=1996
DGENRE=Blues
TTITLE0=Drive To Survive
TTITLE1=You Got Work To Do
TTITLE2=That's How I Feel
TTITLE3=All About My Girl
TTITLE4=Play To Win
TTITLE5=Cool Guitars
TTITLE6=Slow Down Baby
TTITLE7=Long, Lean, and Lanky
TTITLE8=Burford's Bop
TTITLE9=Rub On Up
TTITLE10=Apache
EXTD=
EXTT0=
EXTT1=
EXTT2=
EXTT3=
EXTT4=
EXTT5=
EXTT6=
EXTT7=
EXTT8=
EXTT9=
EXTT10=
PLAYORDER=
